<mxfile host="app.diagrams.net" modified="2023-04-05T20:35:47.295Z" agent="Mozilla/5.0 (Windows NT 10.0; Win64; x64) AppleWebKit/537.36 (KHTML, like Gecko) Chrome/111.0.0.0 Safari/537.36" version="21.1.4" etag="eeJJHawYb_Dfzbv96foi" type="github">
  <diagram name="Page-1" id="E42ZqrKlXivf7Q9WrTgK">
    <mxGraphModel>
      <root>
        <mxCell id="0" />
        <mxCell id="1" parent="0" />
      </root>
    </mxGraphModel>
  </diagram>
</mxfile>
